<svg data-name="Layer 1" viewBox="0 0 128 128" xmlns="http://www.w3.org/2000/svg"><defs><style>.cls-1{fill:#2e79bd}</style></defs><path class="cls-1" d="M31.647 49.789H53.43a2.334 2.334 0 0 0 0-4.668h-.778V9.393a1.954 1.954 0 0 0-1.954-1.954H34.38a1.954 1.954 0 0 0-1.953 1.954v35.728h-.7a2.386 2.386 0 0 0-2.393 2.03 2.335 2.335 0 0 0 2.315 2.638zM122.27 93.028H2.274v29.562H125.73V93.028z"/><path d="M112.37 58.981V37.606a3.972 3.972 0 0 0-3.968-3.965H84.483V19.415h9.679a1.962 1.962 0 0 0 1.962-1.963V7.37a1.962 1.962 0 0 0-1.962-1.962H68.524a1.962 1.962 0 0 0-1.963 1.963v10.079a1.963 1.963 0 0 0 1.963 1.963h9.679v14.228H55.452v5.445h51.473v16.704h-85.85V39.087h8.549v-5.445h-10.03a3.969 3.969 0 0 0-3.964 3.964v21.37L2.274 88.36h123.45zM34.437 81.203h-6.224a2.956 2.956 0 0 1 0-5.912h6.224a2.956 2.956 0 0 1 0 5.912zm0-9.335h-6.224a2.956 2.956 0 0 1 0-5.913h6.224a2.956 2.956 0 0 1 0 5.913zm21.783 9.335h-6.224a2.956 2.956 0 0 1 0-5.912h6.224a2.956 2.956 0 0 1 0 5.912zm0-9.335h-6.224a2.956 2.956 0 0 1 0-5.913h6.224a2.956 2.956 0 0 1 0 5.913zm21.783 9.335h-6.224a2.956 2.956 0 1 1 0-5.912h6.224a2.956 2.956 0 0 1 0 5.912zm0-9.335h-6.224a2.956 2.956 0 1 1 0-5.913h6.224a2.956 2.956 0 0 1 0 5.913zm21.783 9.335h-6.224a2.956 2.956 0 0 1 0-5.912h6.224a2.956 2.956 0 1 1 0 5.912zm0-9.335h-6.224a2.956 2.956 0 0 1 0-5.913h6.224a2.956 2.956 0 1 1 0 5.913z" fill="#2d3e50"/></svg>